<?xml version="1.0" encoding="UTF-8"?>
<svg xmlns="http://www.w3.org/2000/svg" xmlns:xlink="http://www.w3.org/1999/xlink" width="393.79pt" height="394.78pt" viewBox="0 0 393.79 394.78" version="1.1">
<defs>
<clipPath id="clip1">
  <path d="M 180 0 L 393.789063 0 L 393.789063 189 L 180 189 Z M 180 0 "/>
</clipPath>
<clipPath id="clip2">
  <path d="M 180 208 L 393.789063 208 L 393.789063 394.78125 L 180 394.78125 Z M 180 208 "/>
</clipPath>
</defs>
<g id="surface1">
<g clip-path="url(#clip1)" clip-rule="nonzero">
<path style=" stroke:none;fill-rule:nonzero;fill:rgb(18.399048%,46.299744%,73.699951%);fill-opacity:1;" d="M 180.390625 30.976563 C 251.417969 20.109375 322.582031 9.871094 393.746094 -0.00390625 C 393.789063 62.367188 393.746094 124.691406 393.789063 187.058594 C 322.671875 187.332031 251.554688 188.414063 180.390625 188.640625 C 180.34375 136.054688 180.34375 83.515625 180.390625 30.976563 "/>
</g>
<path style=" stroke:none;fill-rule:nonzero;fill:rgb(18.399048%,46.299744%,73.699951%);fill-opacity:1;" d="M 0 56.140625 C 53.484375 47.890625 107.195313 40.765625 160.90625 34.042969 C 160.953125 85.769531 160.953125 137.453125 160.996094 189.179688 C 107.332031 189.136719 53.664063 189.945313 0 189.8125 L 0 56.140625 "/>
<path style=" stroke:none;fill-rule:nonzero;fill:rgb(18.399048%,46.299744%,73.699951%);fill-opacity:1;" d="M 0 206.09375 C 53.621094 205.910156 107.242188 206.769531 160.863281 206.679688 C 160.863281 258.539063 160.996094 310.402344 160.90625 362.265625 C 107.332031 354.328125 53.664063 347.382813 0 340.121094 L 0 206.09375 "/>
<g clip-path="url(#clip2)" clip-rule="nonzero">
<path style=" stroke:none;fill-rule:nonzero;fill:rgb(18.399048%,46.299744%,73.699951%);fill-opacity:1;" d="M 180.074219 208.164063 C 251.328125 208.164063 322.535156 208.164063 393.746094 208.164063 C 393.835938 270.355469 393.746094 332.542969 393.746094 394.78125 C 322.71875 384.136719 251.554688 374.261719 180.390625 364.609375 C 180.300781 312.476563 180.164063 260.34375 180.074219 208.164063 "/>
</g>
</g>
</svg>
